# xmcd CD database file
#
# Track frame offsets:
#	225
#	13329
#	31281
#	51855
#	67855
#	83976
#	108453
#	127545
#	145251
#	160647
#	183636
#	212292
#
# Disc length: 3072 seconds
#
# Revision: 4
# Processed by: cddbd v1.5.2PL0 Copyright (c) Steve Scherf et al.
# Submitted via: CDex 1.79
#
DISCID=980bfd0c
DTITLE=Blue Rodeo - Are You Ready
DYEAR=2005
DGENRE=Rock
TTITLE0=Can't Help Wondering Why
TTITLE1=Are You Ready
TTITLE2=Rena
TTITLE3=Up On That Cloud
TTITLE4=I Will
TTITLE5=Phaedra's Meadow
TTITLE6=Runaway Train
TTITLE7=Stuck On You
TTITLE8=Beverley Street
TTITLE9=Finger Lakes
TTITLE10=Tired Of Pretending
TTITLE11=Don't Get Angry
EXTD=YEAR: 2005
EXTT0=
EXTT1=
EXTT2=
EXTT3=
EXTT4=
EXTT5=
EXTT6=
EXTT7=
EXTT8=
EXTT9=
EXTT10=
EXTT11=
PLAYORDER=
